# xmcd CD database file
#
# Track frame offsets:
#	150
#	30855
#	50320
#	67927
#	89495
#	110375
#	128367
#	160855
#	185227
#
# Disc length: 2641 seconds
#
# Revision: 0
# Processed by: cddbd v1.5.2PL0 Copyright (c) Steve Scherf et al.
# Submitted via: CDex 1.51
#
DISCID=680a4f09
DTITLE=Thelonious Monk - Criss Cross
DYEAR=1900
DGENRE=Jazz
TTITLE0=Hackensack
TTITLE1=Tea for Two
TTITLE2=Criss Cross
TTITLE3=Eronel
TTITLE4=Rhythm-a-ning
TTITLE5=Don't blame me
TTITLE6=Think of one
TTITLE7=Crepuscle with Nelly
TTITLE8=Pannonica
EXTD=
EXTT0=
EXTT1=
EXTT2=
EXTT3=
EXTT4=
EXTT5=
EXTT6=
EXTT7=
EXTT8=
PLAYORDER=
